<svg width="64" height="64" viewBox="0 0 72 72" fill="none" xmlns="http://www.w3.org/2000/svg">
<g filter="url(#filter0_d_22_120)">
<path d="M34.0546 49.1803C44.6175 49.1803 53.1803 40.6175 53.1803 30.0546C53.1803 19.4918 44.6175 10.929 34.0546 10.929C23.4918 10.929 14.929 19.4918 14.929 30.0546C14.929 40.6175 23.4918 49.1803 34.0546 49.1803Z" fill="#00BA8C"/>
<path d="M34.0546 60C32.5519 60 31.3224 58.8798 31.3224 57.377V57.1585C31.3224 55.6557 32.5519 54.4262 34.0546 54.4262C35.5574 54.4262 36.7869 55.6557 36.7869 57.1585C36.7869 58.6612 35.5574 60 34.0546 60ZM53.5628 52.2951C52.8525 52.2951 52.1694 52.0219 51.623 51.5027L51.2678 51.1475C50.2022 50.082 50.2022 48.3607 51.2678 47.2951C52.3333 46.2295 54.0546 46.2295 55.1202 47.2951L55.4754 47.6503C56.541 48.7158 56.541 50.4372 55.4754 51.5027C54.9563 52.0219 54.2732 52.2951 53.5628 52.2951ZM14.5464 52.2951C13.8361 52.2951 13.153 52.0219 12.6066 51.5027C11.541 50.4372 11.541 48.7158 12.6066 47.6503L12.9617 47.2951C14.0273 46.2295 15.7486 46.2295 16.8142 47.2951C17.8798 48.3607 17.8798 50.082 16.8142 51.1475L16.459 51.5027C15.9399 52.0219 15.2295 52.2951 14.5464 52.2951ZM61.377 32.7869H61.1585C59.6557 32.7869 58.4262 31.5574 58.4262 30.0546C58.4262 28.5519 59.6557 27.3224 61.1585 27.3224C62.6612 27.3224 64 28.5519 64 30.0546C64 31.5574 62.8798 32.7869 61.377 32.7869ZM6.95082 32.7869H6.73224C5.22951 32.7869 4 31.5574 4 30.0546C4 28.5519 5.22951 27.3224 6.73224 27.3224C8.23497 27.3224 9.57377 28.5519 9.57377 30.0546C9.57377 31.5574 8.45355 32.7869 6.95082 32.7869ZM53.2077 13.6339C52.4973 13.6339 51.8142 13.3607 51.2678 12.8415C50.2022 11.776 50.2022 10.0546 51.2678 8.98907L51.623 8.63388C52.6885 7.56831 54.4098 7.56831 55.4754 8.63388C56.541 9.69945 56.541 11.4208 55.4754 12.4863L55.1202 12.8415C54.6011 13.3607 53.918 13.6339 53.2077 13.6339ZM14.9016 13.6339C14.1913 13.6339 13.5082 13.3607 12.9617 12.8415L12.6066 12.459C11.541 11.3934 11.541 9.67213 12.6066 8.60656C13.6721 7.54098 15.3934 7.54098 16.459 8.60656L16.8142 8.96175C17.8798 10.0273 17.8798 11.7486 16.8142 12.8142C16.2951 13.3607 15.5847 13.6339 14.9016 13.6339ZM34.0546 5.57377C32.5519 5.57377 31.3224 4.45355 31.3224 2.95082V2.73224C31.3224 1.22951 32.5519 0 34.0546 0C35.5574 0 36.7869 1.22951 36.7869 2.73224C36.7869 4.23497 35.5574 5.57377 34.0546 5.57377Z" fill="#637478"/>
</g>
<defs>
<filter id="filter0_d_22_120" x="0" y="0" width="72" height="72" filterUnits="userSpaceOnUse" color-interpolation-filters="sRGB">
<feFlood flood-opacity="0" result="BackgroundImageFix"/>
<feColorMatrix in="SourceAlpha" type="matrix" values="0 0 0 0 0 0 0 0 0 0 0 0 0 0 0 0 0 0 127 0" result="hardAlpha"/>
<feOffset dy="4"/>
<feGaussianBlur stdDeviation="2"/>
<feComposite in2="hardAlpha" operator="out"/>
<feColorMatrix type="matrix" values="0 0 0 0 0 0 0 0 0 0 0 0 0 0 0 0 0 0 0.25 0"/>
<feBlend mode="normal" in2="BackgroundImageFix" result="effect1_dropShadow_22_120"/>
<feBlend mode="normal" in="SourceGraphic" in2="effect1_dropShadow_22_120" result="shape"/>
</filter>
</defs>
</svg>
