<svg width="64" height="64" viewBox="0 0 72 72" fill="none" xmlns="http://www.w3.org/2000/svg">
<g filter="url(#filter0_d_25_31)">
<path d="M35 56C48.807 56 60 44.807 60 31C60 17.1929 48.807 6 35 6C21.1929 6 10 17.1929 10 31C10 44.807 21.1929 56 35 56Z" fill="#00BA8C"/>
</g>
<path d="M20 38.2252C18.975 38.2252 18.125 37.3752 18.125 36.3502V25.6252C18.125 24.6002 18.975 23.7502 20 23.7502C21.025 23.7502 21.875 24.6002 21.875 25.6252V36.3502C21.875 37.4002 21.025 38.2252 20 38.2252Z" fill="#FCFCFC"/>
<path d="M27.5 41.8005C26.475 41.8005 25.625 40.9505 25.625 39.9255V22.0754C25.625 21.0504 26.475 20.2004 27.5 20.2004C28.525 20.2004 29.375 21.0504 29.375 22.0754V39.9255C29.375 40.9755 28.525 41.8005 27.5 41.8005Z" fill="#FCFCFC"/>
<path d="M35 45.375C33.975 45.375 33.125 44.525 33.125 43.5V18.5C33.125 17.475 33.975 16.625 35 16.625C36.025 16.625 36.875 17.475 36.875 18.5V43.5C36.875 44.525 36.025 45.375 35 45.375Z" fill="#FCFCFC"/>
<path d="M42.5 41.8005C41.475 41.8005 40.625 40.9505 40.625 39.9255V22.0754C40.625 21.0504 41.475 20.2004 42.5 20.2004C43.525 20.2004 44.375 21.0504 44.375 22.0754V39.9255C44.375 40.9755 43.525 41.8005 42.5 41.8005Z" fill="#FCFCFC"/>
<path d="M50 38.2252C48.975 38.2252 48.125 37.3752 48.125 36.3502V25.6252C48.125 24.6002 48.975 23.7502 50 23.7502C51.025 23.7502 51.875 24.6002 51.875 25.6252V36.3502C51.875 37.4002 51.025 38.2252 50 38.2252Z" fill="#FCFCFC"/>
<defs>
<filter id="filter0_d_25_31" x="0" y="0" width="70" height="70" filterUnits="userSpaceOnUse" color-interpolation-filters="sRGB">
<feFlood flood-opacity="0" result="BackgroundImageFix"/>
<feColorMatrix in="SourceAlpha" type="matrix" values="0 0 0 0 0 0 0 0 0 0 0 0 0 0 0 0 0 0 127 0" result="hardAlpha"/>
<feOffset dy="4"/>
<feGaussianBlur stdDeviation="5"/>
<feComposite in2="hardAlpha" operator="out"/>
<feColorMatrix type="matrix" values="0 0 0 0 0 0 0 0 0 0 0 0 0 0 0 0 0 0 0.25 0"/>
<feBlend mode="normal" in2="BackgroundImageFix" result="effect1_dropShadow_25_31"/>
<feBlend mode="normal" in="SourceGraphic" in2="effect1_dropShadow_25_31" result="shape"/>
</filter>
</defs>
</svg>
