<svg width="64" height="64" viewBox="0 0 72 72" fill="none" xmlns="http://www.w3.org/2000/svg">
<g filter="url(#filter0_d_25_13)">
<path fill-rule="evenodd" clip-rule="evenodd" d="M4 14.0625C4 8.59719 8.43052 4.16667 13.8958 4.16667H38.8958C44.3613 4.16667 48.7917 8.59719 48.7917 14.0625V34.8958C48.7917 40.3613 44.3613 44.7917 38.8958 44.7917H13.8958C8.43052 44.7917 4 40.3613 4 34.8958V14.0625Z" fill="#00BA8C"/>
</g>
<path d="M19.1042 17.1875H17.0208C16.4455 17.1875 15.9792 17.6539 15.9792 18.2292V20.3125C15.9792 20.8878 16.4455 21.3542 17.0208 21.3542H19.1042C19.6795 21.3542 20.1458 20.8878 20.1458 20.3125V18.2292C20.1458 17.6539 19.6795 17.1875 19.1042 17.1875Z" fill="#FCFCFC"/>
<path d="M27.4375 17.1875H25.3542C24.7789 17.1875 24.3125 17.6539 24.3125 18.2292V20.3125C24.3125 20.8878 24.7789 21.3542 25.3542 21.3542H27.4375C28.0128 21.3542 28.4792 20.8878 28.4792 20.3125V18.2292C28.4792 17.6539 28.0128 17.1875 27.4375 17.1875Z" fill="#FCFCFC"/>
<path d="M35.7708 17.1875H33.6875C33.1122 17.1875 32.6458 17.6539 32.6458 18.2292V20.3125C32.6458 20.8878 33.1122 21.3542 33.6875 21.3542H35.7708C36.3461 21.3542 36.8125 20.8878 36.8125 20.3125V18.2292C36.8125 17.6539 36.3461 17.1875 35.7708 17.1875Z" fill="#FCFCFC"/>
<path d="M19.1042 23.4375H17.0208C16.4455 23.4375 15.9792 23.9039 15.9792 24.4792V26.5625C15.9792 27.1378 16.4455 27.6042 17.0208 27.6042H19.1042C19.6795 27.6042 20.1458 27.1378 20.1458 26.5625V24.4792C20.1458 23.9039 19.6795 23.4375 19.1042 23.4375Z" fill="#FCFCFC"/>
<path d="M19.1042 29.6875H17.0208C16.4455 29.6875 15.9792 30.1539 15.9792 30.7292V32.8125C15.9792 33.3878 16.4455 33.8542 17.0208 33.8542H19.1042C19.6795 33.8542 20.1458 33.3878 20.1458 32.8125V30.7292C20.1458 30.1539 19.6795 29.6875 19.1042 29.6875Z" fill="#FCFCFC"/>
<path d="M27.4375 23.4375H25.3542C24.7789 23.4375 24.3125 23.9039 24.3125 24.4792V26.5625C24.3125 27.1378 24.7789 27.6042 25.3542 27.6042H27.4375C28.0128 27.6042 28.4792 27.1378 28.4792 26.5625V24.4792C28.4792 23.9039 28.0128 23.4375 27.4375 23.4375Z" fill="#FCFCFC"/>
<path d="M27.4375 29.6875H25.3542C24.7789 29.6875 24.3125 30.1539 24.3125 30.7292V32.8125C24.3125 33.3878 24.7789 33.8542 25.3542 33.8542H27.4375C28.0128 33.8542 28.4792 33.3878 28.4792 32.8125V30.7292C28.4792 30.1539 28.0128 29.6875 27.4375 29.6875Z" fill="#FCFCFC"/>
<path d="M35.7708 23.4375H33.6875C33.1122 23.4375 32.6458 23.9039 32.6458 24.4792V26.5625C32.6458 27.1378 33.1122 27.6042 33.6875 27.6042H35.7708C36.3461 27.6042 36.8125 27.1378 36.8125 26.5625V24.4792C36.8125 23.9039 36.3461 23.4375 35.7708 23.4375Z" fill="#FCFCFC"/>
<path d="M35.7708 29.6875H33.6875C33.1122 29.6875 32.6458 30.1539 32.6458 30.7292V32.8125C32.6458 33.3878 33.1122 33.8542 33.6875 33.8542H35.7708C36.3461 33.8542 36.8125 33.3878 36.8125 32.8125V30.7292C36.8125 30.1539 36.3461 29.6875 35.7708 29.6875Z" fill="#FCFCFC"/>
<path fill-rule="evenodd" clip-rule="evenodd" d="M18.0625 0C18.9254 0 19.625 0.699563 19.625 1.5625V8.85417C19.625 9.7171 18.9254 10.4167 18.0625 10.4167C17.1996 10.4167 16.5 9.7171 16.5 8.85417V1.5625C16.5 0.699563 17.1996 0 18.0625 0Z" fill="#FCFCFC"/>
<path fill-rule="evenodd" clip-rule="evenodd" d="M34.7292 0C35.5921 0 36.2917 0.699563 36.2917 1.5625V8.85417C36.2917 9.7171 35.5921 10.4167 34.7292 10.4167C33.8662 10.4167 33.1667 9.7171 33.1667 8.85417V1.5625C33.1667 0.699563 33.8662 0 34.7292 0Z" fill="#FCFCFC"/>
<defs>
<filter id="filter0_d_25_13" x="0" y="4.16667" width="52.7917" height="48.625" filterUnits="userSpaceOnUse" color-interpolation-filters="sRGB">
<feFlood flood-opacity="0" result="BackgroundImageFix"/>
<feColorMatrix in="SourceAlpha" type="matrix" values="0 0 0 0 0 0 0 0 0 0 0 0 0 0 0 0 0 0 127 0" result="hardAlpha"/>
<feOffset dy="4"/>
<feGaussianBlur stdDeviation="2"/>
<feComposite in2="hardAlpha" operator="out"/>
<feColorMatrix type="matrix" values="0 0 0 0 0 0 0 0 0 0 0 0 0 0 0 0 0 0 0.25 0"/>
<feBlend mode="normal" in2="BackgroundImageFix" result="effect1_dropShadow_25_13"/>
<feBlend mode="normal" in="SourceGraphic" in2="effect1_dropShadow_25_13" result="shape"/>
</filter>
</defs>
</svg>
